<svg xmlns="http://www.w3.org/2000/svg" viewBox="0 0 400 300">
  <defs>
    <linearGradient id="bgGrad" x1="0%" y1="0%" x2="100%" y2="100%">
      <stop offset="0%" stop-color="#0a0a0f"/>
      <stop offset="100%" stop-color="#1a1a2e"/>
    </linearGradient>
    <linearGradient id="brandGrad" x1="0%" y1="0%" x2="100%" y2="0%">
      <stop offset="0%" stop-color="#0070f3"/>
      <stop offset="100%" stop-color="#7928ca"/>
    </linearGradient>
  </defs>

  <rect width="400" height="300" fill="url(#bgGrad)"/>

  <!-- Browser chrome -->
  <rect x="0" y="0" width="400" height="28" fill="rgba(255,255,255,0.03)"/>
  <circle cx="14" cy="14" r="4" fill="#ff5f56" opacity="0.5"/>
  <circle cx="28" cy="14" r="4" fill="#ffbd2e" opacity="0.5"/>
  <circle cx="42" cy="14" r="4" fill="#27c93f" opacity="0.5"/>

  <!-- Shopping cart icon -->
  <g transform="translate(200,110)" fill="none" stroke="rgba(255,255,255,0.1)" stroke-width="2">
    <rect x="-40" y="-10" width="80" height="50" rx="6"/>
    <circle cx="-12" cy="42" r="8"/>
    <circle cx="12" cy="42" r="8"/>
    <line x1="-40" y1="-10" x2="-30" y2="-30"/>
    <line x1="-30" y1="-30" x2="20" y2="-30"/>
  </g>

  <!-- Grid items -->
  <g opacity="0.04" stroke="#fff" stroke-width="1">
    <rect x="120" y="190" width="60" height="40" rx="4"/>
    <rect x="190" y="190" width="60" height="40" rx="4"/>
    <rect x="260" y="190" width="60" height="40" rx="4"/>
  </g>

  <text x="200" y="210" font-family="'Inter',Arial,sans-serif" font-size="20" font-weight="700" fill="url(#brandGrad)" text-anchor="middle">Tienda Online</text>
  <text x="200" y="240" font-family="'Inter',Arial,sans-serif" font-size="11" fill="rgba(255,255,255,0.3)" text-anchor="middle" letter-spacing="1.5">PLANTILLA</text>
</svg>
